<svg xmlns="http://www.w3.org/2000/svg" xmlns:xlink="http://www.w3.org/1999/xlink"  viewBox="0 0 1023.179 928.547"><defs><linearGradient id="a" x1="0.5" y1="0.923" x2="0.5" y2="-0.187" gradientUnits="objectBoundingBox"><stop offset="0" stop-color="#fff"/><stop offset="0.126" stop-color="#f8fbfe"/><stop offset="0.305" stop-color="#e5f3fc"/><stop offset="0.516" stop-color="#c6e4f9"/><stop offset="0.752" stop-color="#9bd0f4"/><stop offset="1" stop-color="#67b8ef"/></linearGradient></defs><g transform="translate(0)"><path d="M1292.992,1032.718H734.131C609.568,946.851,528.14,805.249,528.14,644.971,528.14,383.01,745.467,133,1013.562,133s485.428,250.01,485.428,511.971C1498.989,805.249,1417.555,946.851,1292.992,1032.718Z" transform="translate(-501.975 -125.775)" opacity="0.42" fill="url(#a)"/><path d="M523.584,306.579c0-11.135,229.049-20.175,511.587-20.175s511.592,9.039,511.592,20.175-229.049,20.169-511.592,20.169S523.584,317.714,523.584,306.579Z" transform="translate(-523.584 601.8)" fill="#cee5ed" opacity="0.43"/><g transform="translate(575.454 342.35)"><rect width="23.274" height="222.564" transform="translate(103.069 323.393)" fill="#aac6ce"/><rect width="23.274" height="31.288" transform="translate(103.069 323.393)" fill="#85b0ba"/><path d="M2.348,0h217.4A2.349,2.349,0,0,1,222.1,2.349V20.426a0,0,0,0,1,0,0H0a0,0,0,0,1,0,0V2.348A2.348,2.348,0,0,1,2.348,0Z" transform="translate(0 546.035)" fill="#aac6ce"/><path d="M724.187,514.971H562.9c58.686-21.076,35.985-219.624,25.137-294.885a25.156,25.156,0,0,1,24.918-28.732H720.385a44.013,44.013,0,0,1,43.623,37.983c9.424,68.386,24.281,210.183-5.146,265.079A39.276,39.276,0,0,1,724.187,514.971Z" transform="translate(-554.308 -191.355)" fill="#aac6ce"/></g><g transform="translate(721.581)"><path d="M536.728,244.8a113.057,113.057,0,1,1,113.054,113.06A113.056,113.056,0,0,1,536.728,244.8Z" transform="translate(-536.728 -131.742)" fill="#3e8ccc"/><path d="M540.342,227.66a92.305,92.305,0,1,1,92.305,92.311A92.3,92.3,0,0,1,540.342,227.66Z" transform="translate(-519.593 -114.606)" fill="#cee5ed"/><path d="M556.415,139.822" transform="translate(-443.361 -93.42)" fill="none" stroke="#3e8ccc" stroke-miterlimit="10" stroke-width="1"/><g transform="translate(101.029 41.682)"><g transform="translate(6.754)"><path d="M582.338,241.866a5.743,5.743,0,0,0,4.06-9.8l-24.063-24.068V144.743a5.743,5.743,0,0,0-11.486,0v65.629a5.752,5.752,0,0,0,1.683,4.06l25.745,25.751A5.723,5.723,0,0,0,582.338,241.866Z" transform="translate(-550.85 -139)" fill="#3e8ccc"/></g><path d="M553.9,162.06a13.223,13.223,0,1,1,13.226,13.226A13.225,13.225,0,0,1,553.9,162.06Z" transform="translate(-553.904 -92.359)" fill="#1e394c"/></g></g><g transform="translate(172.999 218.275)"><path d="M649.7,169.75H842.641a17.909,17.909,0,0,1,17.912,17.912v86.924A17.909,17.909,0,0,1,842.641,292.5H829.162v21.025a3.367,3.367,0,0,1-5.622,2.5L797.45,292.5H649.7a17.911,17.911,0,0,1-17.906-17.912V187.662A17.911,17.911,0,0,1,649.7,169.75Z" transform="translate(-631.791 -169.75)" fill="#62bdf4"/><g transform="translate(59.582 54.804)"><path d="M642.167,187.184a7.888,7.888,0,1,0,7.891-7.891A7.893,7.893,0,0,0,642.167,187.184Z" transform="translate(-548.352 -179.293)" fill="#34648c"/><path d="M650.616,187.184a7.888,7.888,0,1,0,7.885-7.891A7.888,7.888,0,0,0,650.616,187.184Z" transform="translate(-605.322 -179.293)" fill="#34648c"/><path d="M658.5,187.184a7.888,7.888,0,1,0,7.891-7.891A7.893,7.893,0,0,0,658.5,187.184Z" transform="translate(-658.503 -179.293)" fill="#34648c"/></g></g><g transform="translate(820.992 409.225)"><g transform="translate(1.668)"><path d="M546.812,245.595c0-21.277,15.024-42.595,33.561-42.595s33.561,21.318,33.561,42.595-15.029,38.523-33.561,38.523S546.812,266.872,546.812,245.595Z" transform="translate(-546.812 -203)" fill="#67b8ef"/><path d="M584.718,203a24.811,24.811,0,0,1,8.614,1.62c-14.352,5.295-24.947,23.127-24.947,40.975s10.6,32.821,24.947,37.2a29.511,29.511,0,0,1-8.614,1.327c-18.538,0-33.561-17.246-33.561-38.523S566.18,203,584.718,203Z" transform="translate(-551.156 -203)" fill="#34648c" opacity="0.25"/></g><g transform="translate(0 62.212)"><path d="M619.468,219.386l-6.013,54.454A13.446,13.446,0,0,1,600.1,285.8h-34.71a13.44,13.44,0,0,1-13.352-11.962l-6.013-54.454A5,5,0,0,1,551,213.833h63.5A5,5,0,0,1,619.468,219.386Z" transform="translate(-545.99 -213.833)" fill="#cee5ed"/><path d="M614.493,221.971h-63.5a4.918,4.918,0,0,0-4.382,2.791l-.591-5.375a5,5,0,0,1,4.973-5.553h63.5a5.007,5.007,0,0,1,4.974,5.553l-.6,5.375A4.917,4.917,0,0,0,614.493,221.971Z" transform="translate(-545.989 -213.833)" fill="#aac6ce"/><path d="M556.584,213.833H578.6a5,5,0,0,0-4.967,5.553l6.013,54.454A13.44,13.44,0,0,0,592.994,285.8H570.975a13.44,13.44,0,0,1-13.352-11.962l-6.013-54.454A5,5,0,0,1,556.584,213.833Z" transform="translate(-551.579 -213.833)" fill="#aac6ce"/></g></g><g transform="translate(301.498 223.546)"><g transform="translate(136.517 332.048)"><g transform="translate(0 24.501)"><path d="M649.3,283.934l2.277,15.737L639.608,315l-30.375-14.868-3.286-14.4,37.806-5.715Z" transform="translate(-539.419 -8.576)" fill="#f2bf75"/><path d="M690.591,318.358l-3.136-3.882a1.461,1.461,0,0,0-2.251-.029l-3.153,3.687a6.55,6.55,0,0,1-5.105,2.309l-70.563-1.2a3.786,3.786,0,0,1-.12-5.335c10.337-10.441,66-28.485,68.771-30s19.8,11.7,42.348-.465c0,0,3.658,17.671,4.181,29.116a8.061,8.061,0,0,1-8.149,8.505l-17.906-.3A6.468,6.468,0,0,1,690.591,318.358Z" transform="translate(-605.218 7.651)" fill="#1e394c"/><path d="M778.551,242.175s29.3,32.39-24.35,67.588c-37.645,24.689-67.307,17.148-90.927,32.114-5.542,3.509-9.751,8.735-10.148,15.282l-1.194,151.417-2.86,1.418a52.01,52.01,0,0,1-45.242.494h0L582.466,337.725c-.764-11.911,5.668-21.949,13.042-31.333,41.027-52.186,113.663-69.868,132.052-72.883C751.461,229.593,778.551,242.175,778.551,242.175Z" transform="translate(-539.171 -232.753)" fill="#1e394c"/></g><g transform="translate(117.354)"><path d="M628.917,283.866l2.5,15.709L619.646,315.06l-30.57-14.452-3.483-14.346,37.722-6.23Z" transform="translate(-519.711 15.976)" fill="#f2bf75"/><path d="M670.184,318.7,667,314.859a1.464,1.464,0,0,0-2.251.006l-3.1,3.733a6.589,6.589,0,0,1-5.083,2.378l-70.574-.235a3.791,3.791,0,0,1-.19-5.335c10.194-10.578,65.607-29.38,68.352-30.943s19.956,11.434,42.337-1.028c0,0,3.9,17.608,4.583,29.048a8.056,8.056,0,0,1-8.029,8.614l-17.912-.063A6.451,6.451,0,0,1,670.184,318.7Z" transform="translate(-584.792 32.119)" fill="#1e394c"/><path d="M754.626,234.173s35.5,39.568-15.833,84.259c-36.008,31.35-68.323,17.946-91.007,37.07-5.318,4.485-8.993,10.573-8.465,17.51l16.212,154.024-1.223.787a48.781,48.781,0,0,1-47.332,3.233h0l-40.137-162.3c-2.515-12.4,2.809-23.879,9.206-34.8,35.623-60.731,91.559-96.928,110.453-102.74C711.049,223.669,754.626,234.173,754.626,234.173Z" transform="translate(-543.535 -228.487)" fill="#1e394c"/></g><path d="M588.95,336.8a70.407,70.407,0,0,1,8.27-2.871c1.493-7.236,5.054-14.242,9.016-20.961,17.631-30.093,40.315-54.213,60.989-71.5-12.864-2.182-19.411-4.939-22.971-8.557a241.8,241.8,0,0,0-38.534,10.452C588.26,272.536,588.318,319.914,588.95,336.8Z" transform="translate(-456.359 -207.509)" fill="#0f2a3f"/></g><path d="M646.052,193.382s51.2-6.828,72.481,33.067S771.591,422.746,743.8,427.5c-12.3,2.1-45.11,10.36-81.457,7.7-49.98-3.658-60.84-8.258-64.441-17.763L566.059,271.692a61.631,61.631,0,0,1,24.172-51.456C615.741,200.9,646.052,193.382,646.052,193.382Z" transform="translate(-276.673 -65.045)" fill="#cee5ed"/><path d="M723.238,204.42s-.666,87.774-28.261,93.092S593.9,301.17,593.9,301.17V329.1H751.5Z" transform="translate(-433.651 -10.586)" fill="#aac6ce"/><path d="M591.12,248.453l-6.214-31.04,40.269-30.673,7.718,36.6S620.191,279.217,591.12,248.453Z" transform="translate(-263.377 -94.44)" fill="#ea9249"/><path d="M611.468,234.472s21.065,10.251,51.927-8.557c0,0,7.156,12.87,27.841,24.361,0,0,10.745-18.015,16.936-4.514a28.581,28.581,0,0,1,2.843,11.02c19.371-25.022,5.708-57.986-12.347-75.754-17.12-16.867-54.167-10.159-77.31-.856-24.568,9.884-29.082-7.316-29.082-7.316C561.23,216.589,611.468,234.472,611.468,234.472Z" transform="translate(-335.09 -170.668)" fill="#1e394c"/><path d="M665.811,204.653s10.744-18.015,16.93-4.52c7.506,16.379-.965,26.647-11.13,26.647,0,0-8.063,42.595-47.2,39.586s-44.783-65.854-38.386-77.517c0,0,21.071,10.257,51.927-8.563C637.958,180.286,645.108,193.173,665.811,204.653Z" transform="translate(-309.652 -125.05)" fill="#f2bf75"/><g transform="translate(0 179.23)"><path d="M628.122,201.877H791.483a16.932,16.932,0,0,1,16.591,13.553l21.748,106.588H631.883L611.525,222.2A16.937,16.937,0,0,1,628.122,201.877Z" transform="translate(-611.177 -201.877)" fill="#cee5ed"/><rect width="286.095" height="18.737" rx="1.404" transform="translate(13.278 120.157)" fill="#80a9b2"/><path d="M618.863,222.8H818.33a8.062,8.062,0,0,0-8.057,8.069v2.607a8.062,8.062,0,0,0,8.057,8.069H618.863a8.063,8.063,0,0,1-8.063-8.069v-2.607A8.063,8.063,0,0,1,618.863,222.8Z" transform="translate(-597.519 -102.647)" fill="#aac6ce"/></g><path d="M565.9,344.7c31.8-3.7,121.025-12.807,136.312-14.386,19.29-2-22.6-79.8-27.262-106.392s15.626-27.6,15.626-27.6c11.446-1.43,23.942,0,34.578,16.115,21.771,32.981,46.029,129.387,33.251,153.185a8.616,8.616,0,0,1-7.609,4.5H565.9Z" transform="translate(-283.298 -51.029)" fill="#cee5ed"/><path d="M574.261,344.691s114.869-7.9,139.638-11.227c19.215-2.579-20.829-82.29-25.487-108.885s15.954-25.493,15.954-25.493a49.374,49.374,0,0,1,17.941,1.683c-7.69-5.054-15.747-5.4-23.379-4.468,0,0-20.267,1.011-15.615,27.612s40.562,102.734,28.427,105.726C696.814,333.32,606.071,341,574.261,344.691Z" transform="translate(-291.657 -51.023)" fill="#aac6ce"/><path d="M646.948,245.3H604.1a4.049,4.049,0,0,1-3.4-6.254c4.015-6.168,10.349-14.88,14.995-16.356,2.768-.879,23.6-.1,31.253.706Z" transform="translate(-364.344 74.213)" fill="#f2bf75"/><path d="M593.562,181.777a34.112,34.112,0,0,0,9.7,2.418c.523,2.9,1.453,8.477,1.958,13.76.718,7.535-3.049,30.868-.718,31.046a68.592,68.592,0,0,0,7.179-.178s3.589,33.739,37.329,28.353c.321-.046.574-.081.879-.132a42.574,42.574,0,0,1-17.941,2.251C592.8,256.285,587.165,193.441,593.562,181.777Z" transform="translate(-317.183 -117.979)" fill="#ea9249" opacity="0.67"/></g><g transform="translate(1.43 527.587)"><g transform="translate(0 33.238)"><path d="M760.174,446.157s-53.817-26.693-39.184-67.169,23.678-42.187-4.307-65.009-68.449-80.079-17.218-84.386,48.654,63.717,91.277,73.193S856.614,490.5,760.174,446.157Z" transform="translate(-674.903 -229.398)" fill="#67b8ef"/><path d="M806.906,450.167c-10.337,4.789-24.235,4.324-42.359-4.014,0,0-53.817-26.693-39.184-67.169s23.678-42.187-4.307-65.009-68.449-80.079-17.218-84.386a47.033,47.033,0,0,1,13.657.735c-14.415,5.984-28.76,17.866-10.222,39.856,30.868,36.611,47.379,49.532,43.789,73.222C747.565,366.5,749.552,418.943,806.906,450.167Z" transform="translate(-679.276 -229.393)" fill="#34648c" opacity="0.25"/></g><g transform="translate(125.538 89.812)"><path d="M705.185,398.143s47.361-1.723,44.777-35.738-3.9-35.342,25.831-46.063c52.53-18.946,10.946-119.831-31.862-56.4-29.708,44.025-42.624,34.118-61.994,37.564S620.374,413.212,705.185,398.143Z" transform="translate(-654.181 -239.249)" fill="#67b8ef"/><path d="M671.829,297.5c19.37-3.446,32.286,6.455,62-37.564,22.4-33.205,44.45-21.363,52.857.155-12.6-3.853-31.747-6.174-34.13,14.334-3.1,26.613-65.354,70.3-64.079,124.626-.833.086-1.625.149-2.424.207-9.062-23.89-21.019-54.873-31.247-81.273C660.28,306.6,666.809,298.389,671.829,297.5Z" transform="translate(-644.072 -239.244)" fill="#34648c" opacity="0.29"/></g><g transform="translate(70.443)"><path d="M760.322,470.806s58.772-57.469,38.747-67.163S739.654,425.6,761.614,391.37s47.522-87.539,17.171-79.143-32.556,17.619-28.8-22.248c4.858-51.565-23.9-78.143-51.014-61.351s23.247,130.455,4.52,118.188-34.228-22.61-38.1-7.753,53.621,73.17,32.292,63.286c-26.48-12.267-30.351,9.688-21.96,23.253S718.991,519.89,760.322,470.806Z" transform="translate(-665.198 -223.61)" fill="#34648c"/><path d="M685.542,425.571c-8.39-13.565-4.52-35.52,21.96-23.253,21.329,9.883-36.168-48.435-32.292-63.286s19.376-4.52,38.1,7.753-31.643-101.4-4.52-118.188c12.612-7.81,25.539-6.139,35.313,2.963-14.042,3.434-25.286,14.731-17.493,45.225,16.511,64.607,26.561,118.447-3.589,102.654-28.4-14.874,32.981,53.679,33.613,103.085C721.394,502.663,693.007,437.625,685.542,425.571Z" transform="translate(-675.022 -223.577)" fill="#1e394c" opacity="0.48"/></g><g transform="translate(67.31 243.44)"><path d="M804.525,276.5,793.153,379.479A25.415,25.415,0,0,1,767.9,402.095H702.25A25.4,25.4,0,0,1,677,379.479L665.633,276.5a9.456,9.456,0,0,1,9.4-10.5H795.118A9.464,9.464,0,0,1,804.525,276.5Z" transform="translate(-665.574 -266)" fill="#cee5ed"/><path d="M685.6,266h41.636a9.456,9.456,0,0,0-9.4,10.5l11.371,102.981a25.4,25.4,0,0,0,25.246,22.615H712.819a25.4,25.4,0,0,1-25.246-22.615L676.2,276.5A9.456,9.456,0,0,1,685.6,266Z" transform="translate(-676.143 -266)" fill="#aac6ce"/></g></g><g transform="translate(180.548 542.724)"><g transform="translate(11.006)"><rect width="732.457" height="33.248" rx="2.491" transform="translate(0.002 0.001)" fill="#3e8ccc"/><path d="M555.163,226.246H1259a14.3,14.3,0,0,1,14.306,14.306v4.634a14.277,14.277,0,0,1-.735,4.336A14.262,14.262,0,0,0,1259,239.546H555.163a14.256,14.256,0,0,0-13.571,9.975,14.107,14.107,0,0,1-.741-4.336v-4.634A14.308,14.308,0,0,1,555.163,226.246Z" transform="translate(-540.852 -226.246)" fill="#2173aa"/></g><g transform="translate(0 33.415)"><g transform="translate(506.696)"><path d="M549.486,563.547h23.521L736.668,232.065H713.141Z" transform="translate(-549.486 -232.065)" fill="#34648c"/></g><g transform="translate(578.51)"><g transform="translate(0)"><path d="M724.163,563.547H700.642L536.982,232.065h23.527Z" transform="translate(-536.982 -232.065)" fill="#34648c"/></g></g><path d="M637.717,563.547h23.521L824.9,232.065H801.371Z" transform="translate(-637.717 -232.065)" fill="#34648c"/><g transform="translate(71.813)"><path d="M812.393,563.547H788.873L625.212,232.065h23.527Z" transform="translate(-625.212 -232.065)" fill="#34648c"/></g><g transform="translate(663.867)"><g transform="translate(0)"><path d="M549.486,245.2l6.483-13.132H579.5L573.013,245.2Z" transform="translate(-549.486 -232.065)" fill="#1a3651"/></g></g><g transform="translate(578.509)"><g transform="translate(0)"><path d="M570.833,245.2l-6.483-13.132h23.527L594.36,245.2Z" transform="translate(-564.35 -232.065)" fill="#1a3651"/></g></g><g transform="translate(157.171)"><g transform="translate(0)"><path d="M637.717,245.2l6.483-13.132h23.527L661.244,245.2Z" transform="translate(-637.717 -232.065)" fill="#1a3651"/></g></g><g transform="translate(71.813)"><path d="M659.063,245.2l-6.483-13.132h23.527L682.59,245.2Z" transform="translate(-652.58 -232.065)" fill="#1a3651"/></g></g></g></g></svg>